name ./resultDataOpenSim/trcMotMarkerGrf/sub06/grf-13-08.mot
datacolumns 19
datarows 20
range 1.56800000 1.64400000
endheader

                time	     ground_force_vx	     ground_force_vy	     ground_force_vz	     ground_force_px	     ground_force_py	     ground_force_pz	   l_ground_force_vx	   l_ground_force_vy	   l_ground_force_vz	   l_ground_force_px	   l_ground_force_py	   l_ground_force_pz	     ground_torque_x	     ground_torque_y	     ground_torque_z	   l_ground_torque_x	   l_ground_torque_y	   l_ground_torque_z	
          1.56800000	         87.01528265	        585.18406907	        -30.41438068	          0.89755514	          0.00000000	          0.11376054	          0.00000000	          0.00000000	          0.00000000	          0.00000000	          0.00000000	          0.00000000	          0.00000000	          3.62685625	          0.00000000	          0.00000000	          0.00000000	          0.00000000	
          1.57200000	         92.16826658	        595.33060688	        -30.14765705	          0.89766117	          0.00000000	          0.11365609	          0.00000000	          0.00000000	          0.00000000	          0.00000000	          0.00000000	          0.00000000	          0.00000000	          3.65594958	          0.00000000	          0.00000000	          0.00000000	          0.00000000	
          1.57600000	         97.46634937	        604.73919129	        -30.60681437	          0.89775206	          0.00000000	          0.11356737	          0.00000000	          0.00000000	          0.00000000	          0.00000000	          0.00000000	          0.00000000	          0.00000000	          3.69583651	          0.00000000	          0.00000000	          0.00000000	          0.00000000	
          1.58000000	        102.90541094	        613.25779386	        -31.79052427	          0.89783585	          0.00000000	          0.11349027	          0.00000000	          0.00000000	          0.00000000	          0.00000000	          0.00000000	          0.00000000	          0.00000000	          3.74562456	          0.00000000	          0.00000000	          0.00000000	          0.00000000	
          1.58400000	        108.47468570	        620.77005920	        -33.54736123	          0.89791138	          0.00000000	          0.11341871	          0.00000000	          0.00000000	          0.00000000	          0.00000000	          0.00000000	          0.00000000	          0.00000000	          3.80062091	          0.00000000	          0.00000000	          0.00000000	          0.00000000	
          1.58800000	        114.14906702	        627.20816473	        -35.60675001	          0.89798734	          0.00000000	          0.11334430	          0.00000000	          0.00000000	          0.00000000	          0.00000000	          0.00000000	          0.00000000	          0.00000000	          3.85369957	          0.00000000	          0.00000000	          0.00000000	          0.00000000	
          1.59200000	        119.89000628	        632.53999152	        -37.63197814	          0.89807424	          0.00000000	          0.11325597	          0.00000000	          0.00000000	          0.00000000	          0.00000000	          0.00000000	          0.00000000	          0.00000000	          3.89700485	          0.00000000	          0.00000000	          0.00000000	          0.00000000	
          1.59600000	        125.64733915	        636.74484419	        -39.28762930	          0.89817131	          0.00000000	          0.11314526	          0.00000000	          0.00000000	          0.00000000	          0.00000000	          0.00000000	          0.00000000	          0.00000000	          3.92364572	          0.00000000	          0.00000000	          0.00000000	          0.00000000	
          1.60000000	        131.35820931	        639.79718128	        -40.30817241	          0.89828072	          0.00000000	          0.11300885	          0.00000000	          0.00000000	          0.00000000	          0.00000000	          0.00000000	          0.00000000	          0.00000000	          3.92922898	          0.00000000	          0.00000000	          0.00000000	          0.00000000	
          1.60400000	        136.94441401	        641.66041420	        -40.54708412	          0.89839639	          0.00000000	          0.11284594	          0.00000000	          0.00000000	          0.00000000	          0.00000000	          0.00000000	          0.00000000	          0.00000000	          3.91307140	          0.00000000	          0.00000000	          0.00000000	          0.00000000	
          1.60800000	        142.31645355	        642.29359696	        -39.99590628	          0.89851169	          0.00000000	          0.11266113	          0.00000000	          0.00000000	          0.00000000	          0.00000000	          0.00000000	          0.00000000	          0.00000000	          3.87874091	          0.00000000	          0.00000000	          0.00000000	          0.00000000	
          1.61200000	        147.39406849	        641.66411351	        -38.77762542	          0.89863771	          0.00000000	          0.11245616	          0.00000000	          0.00000000	          0.00000000	          0.00000000	          0.00000000	          0.00000000	          0.00000000	          3.83344961	          0.00000000	          0.00000000	          0.00000000	          0.00000000	
          1.61600000	        152.14078901	        639.74519867	        -37.11739987	          0.89878320	          0.00000000	          0.11223741	          0.00000000	          0.00000000	          0.00000000	          0.00000000	          0.00000000	          0.00000000	          0.00000000	          3.78600881	          0.00000000	          0.00000000	          0.00000000	          0.00000000	
          1.62000000	        156.60831160	        636.49892082	        -35.29164471	          0.89894840	          0.00000000	          0.11201681	          0.00000000	          0.00000000	          0.00000000	          0.00000000	          0.00000000	          0.00000000	          0.00000000	          3.74363582	          0.00000000	          0.00000000	          0.00000000	          0.00000000	
          1.62400000	        160.96617033	        631.85519586	        -33.57217654	          0.89911397	          0.00000000	          0.11180604	          0.00000000	          0.00000000	          0.00000000	          0.00000000	          0.00000000	          0.00000000	          0.00000000	          3.70869641	          0.00000000	          0.00000000	          0.00000000	          0.00000000	
          1.62800000	        165.46151567	        625.69525419	        -32.19192761	          0.89920906	          0.00000000	          0.11161350	          0.00000000	          0.00000000	          0.00000000	          0.00000000	          0.00000000	          0.00000000	          0.00000000	          3.67702737	          0.00000000	          0.00000000	          0.00000000	          0.00000000	
          1.63200000	        170.30464681	        617.85372660	        -31.32420260	          0.89915563	          0.00000000	          0.11144988	          0.00000000	          0.00000000	          0.00000000	          0.00000000	          0.00000000	          0.00000000	          0.00000000	          3.63908844	          0.00000000	          0.00000000	          0.00000000	          0.00000000	
          1.63600000	        175.56173486	        608.13974703	        -31.04339849	          0.89893296	          0.00000000	          0.11132237	          0.00000000	          0.00000000	          0.00000000	          0.00000000	          0.00000000	          0.00000000	          0.00000000	          3.58354978	          0.00000000	          0.00000000	          0.00000000	          0.00000000	
          1.64000000	        181.11631497	        596.34710697	        -31.28456447	          0.89854763	          0.00000000	          0.11122105	          0.00000000	          0.00000000	          0.00000000	          0.00000000	          0.00000000	          0.00000000	          0.00000000	          3.50119940	          0.00000000	          0.00000000	          0.00000000	          0.00000000	
          1.64400000	        186.67660337	        582.22554534	        -31.84268980	          0.89799946	          0.00000000	          0.11112576	          0.00000000	          0.00000000	          0.00000000	          0.00000000	          0.00000000	          0.00000000	          0.00000000	          3.38688597	          0.00000000	          0.00000000	          0.00000000	          0.00000000	
